<svg width="682" height="614" viewBox="0 0 682 614" fill="none" xmlns="http://www.w3.org/2000/svg">
<path d="M317.794 27.9367C159.7 -27.7651 55.758 5.43928 16.5722 78.0925C-14.8982 136.446 1.20779 187.058 41.7219 284.019C82.236 380.981 46.8581 437.153 34.56 519.444C21.1328 609.719 128.982 629.778 227.91 603.032C326.837 576.286 509.195 459.394 502.188 258.685C497.694 129.76 403.272 58.033 317.794 27.9367Z" fill="#263238"/>
<path d="M203.026 56.3791C203.026 56.8214 202.878 57.2536 202.6 57.6205C202.322 57.9873 201.928 58.2723 201.467 58.4388C201.006 58.6053 200.5 58.6459 200.013 58.5554C199.526 58.4648 199.08 58.2473 198.733 57.9305C198.386 57.6137 198.153 57.2121 198.064 56.777C197.975 56.3419 198.034 55.893 198.233 55.4877C198.432 55.0825 198.763 54.7392 199.182 54.5018C199.602 54.2644 200.092 54.1437 200.589 54.155C201.241 54.1699 201.861 54.4108 202.317 54.8263C202.772 55.2418 203.027 55.799 203.026 56.3791Z" fill="#F0F0F0"/>
<path d="M213.304 57.4913C213.314 57.7483 213.237 58.002 213.084 58.2202C212.931 58.4384 212.709 58.6113 212.445 58.7168C212.181 58.8223 211.888 58.8558 211.603 58.8129C211.318 58.7701 211.053 58.6528 210.843 58.4761C210.633 58.2993 210.487 58.0711 210.423 57.8202C210.359 57.5694 210.38 57.3074 210.484 57.0674C210.588 56.8274 210.77 56.6203 211.007 56.4724C211.243 56.3245 211.524 56.2424 211.813 56.2367C212.197 56.229 212.57 56.3564 212.849 56.5913C213.128 56.8263 213.292 57.1497 213.304 57.4913Z" fill="#FAFAFA"/>
<path d="M605.64 346.237C606.079 345.793 606.696 345.521 607.359 345.478C608.022 345.435 608.677 345.626 609.183 346.009C609.555 346.298 609.823 346.678 609.953 347.101C610.082 347.525 610.068 347.973 609.911 348.39C609.754 348.806 609.463 349.172 609.073 349.441C608.683 349.711 608.212 349.871 607.719 349.903C607.227 349.935 606.735 349.836 606.305 349.619C605.875 349.403 605.528 349.078 605.305 348.686C605.083 348.294 604.996 347.852 605.055 347.417C605.115 346.981 605.318 346.57 605.64 346.237Z" fill="#F0F0F0"/>
<path d="M598.695 339.407C598.952 339.148 599.313 338.99 599.7 338.966C600.087 338.942 600.469 339.054 600.764 339.279C600.91 339.39 601.029 339.525 601.115 339.677C601.201 339.829 601.253 339.995 601.266 340.165C601.28 340.334 601.255 340.505 601.193 340.666C601.132 340.828 601.035 340.976 600.908 341.104C600.652 341.363 600.291 341.522 599.904 341.546C599.516 341.57 599.134 341.457 598.84 341.232C598.694 341.122 598.575 340.986 598.489 340.834C598.402 340.682 598.351 340.517 598.338 340.347C598.324 340.177 598.349 340.006 598.41 339.845C598.472 339.684 598.569 339.535 598.695 339.407Z" fill="#FAFAFA"/>
<path d="M125.077 546.946C125.363 547.199 125.559 547.521 125.638 547.873C125.718 548.225 125.678 548.589 125.525 548.921C125.371 549.252 125.11 549.536 124.775 549.735C124.44 549.935 124.045 550.041 123.642 550.041C123.239 550.041 122.844 549.935 122.509 549.735C122.174 549.536 121.913 549.252 121.759 548.921C121.605 548.589 121.566 548.225 121.646 547.873C121.725 547.521 121.921 547.199 122.207 546.946C122.59 546.613 123.105 546.426 123.642 546.426C124.178 546.426 124.694 546.613 125.077 546.946Z" fill="#FAFAFA"/>
<path d="M143.886 554.858C144.358 555.263 144.683 555.784 144.822 556.355C144.96 556.925 144.905 557.519 144.664 558.062C144.423 558.604 144.007 559.071 143.467 559.403C142.928 559.736 142.29 559.918 141.634 559.928C140.978 559.938 140.333 559.775 139.781 559.459C139.229 559.144 138.795 558.69 138.533 558.155C138.272 557.62 138.194 557.028 138.311 556.454C138.427 555.879 138.732 555.349 139.188 554.929C139.491 554.65 139.853 554.426 140.253 554.271C140.653 554.117 141.084 554.033 141.52 554.027C141.957 554.02 142.39 554.09 142.796 554.233C143.202 554.375 143.573 554.588 143.886 554.858Z" fill="#FAFAFA"/>
<path d="M502.372 473.209C502.375 473.796 502.182 474.371 501.818 474.86C501.453 475.35 500.933 475.732 500.324 475.959C499.715 476.185 499.044 476.246 498.396 476.133C497.748 476.021 497.152 475.739 496.684 475.325C496.216 474.911 495.896 474.383 495.766 473.807C495.636 473.231 495.702 472.634 495.954 472.092C496.205 471.549 496.633 471.085 497.182 470.759C497.731 470.432 498.376 470.258 499.036 470.258C499.918 470.258 500.764 470.568 501.389 471.121C502.014 471.674 502.368 472.425 502.372 473.209Z" fill="#FAFAFA"/>
<path d="M492.43 481.279C492.43 481.629 492.313 481.971 492.094 482.262C491.874 482.553 491.563 482.78 491.199 482.913C490.834 483.047 490.434 483.081 490.048 483.011C489.661 482.942 489.307 482.772 489.03 482.524C488.752 482.275 488.564 481.959 488.489 481.615C488.415 481.271 488.456 480.915 488.609 480.592C488.762 480.269 489.019 479.994 489.349 479.802C489.678 479.609 490.064 479.508 490.458 479.511C490.982 479.515 491.484 479.702 491.853 480.034C492.223 480.365 492.43 480.812 492.43 481.279Z" fill="#FAFAFA"/>
<path d="M486.816 470.257C486.816 470.539 486.722 470.814 486.546 471.049C486.37 471.283 486.12 471.466 485.827 471.574C485.534 471.682 485.211 471.71 484.9 471.655C484.589 471.6 484.303 471.464 484.079 471.265C483.855 471.065 483.702 470.811 483.64 470.535C483.578 470.258 483.61 469.972 483.731 469.711C483.853 469.451 484.058 469.228 484.322 469.071C484.586 468.915 484.896 468.831 485.213 468.831C485.638 468.831 486.046 468.981 486.347 469.249C486.647 469.516 486.816 469.879 486.816 470.257Z" fill="#FAFAFA"/>
<path d="M387.238 97.9953C387.241 98.3568 387.123 98.711 386.9 99.013C386.676 99.3149 386.357 99.5511 385.982 99.6914C385.607 99.8317 385.194 99.8698 384.795 99.8011C384.396 99.7323 384.028 99.5596 383.74 99.305C383.451 99.0503 383.254 98.7252 383.173 98.3708C383.093 98.0164 383.133 97.6488 383.287 97.3145C383.442 96.9802 383.705 96.6944 384.043 96.4932C384.381 96.292 384.779 96.1846 385.185 96.1846C385.454 96.1827 385.721 96.2282 385.97 96.3183C386.218 96.4085 386.445 96.5416 386.636 96.7099C386.826 96.8782 386.978 97.0784 387.081 97.2991C387.185 97.5197 387.238 97.7563 387.238 97.9953Z" fill="#FAFAFA"/>
<path d="M396.811 74.2721L401.413 78.2925L407.747 77.209C407.882 77.1881 408.02 77.2008 408.147 77.2459C408.274 77.2909 408.385 77.3665 408.466 77.4641C408.548 77.5617 408.597 77.6775 408.609 77.7986C408.621 77.9197 408.594 78.0414 408.533 78.1499L405.647 83.2824L408.757 88.3009C408.825 88.4079 408.857 88.5298 408.851 88.6525C408.845 88.7751 408.8 88.8938 408.721 88.9948C408.642 89.0958 408.534 89.1752 408.407 89.2239C408.28 89.2726 408.14 89.2887 408.004 89.2703L401.59 88.4006L397.164 92.5922C397.072 92.683 396.952 92.7485 396.82 92.781C396.687 92.8135 396.547 92.8117 396.416 92.7757C396.284 92.7398 396.167 92.6712 396.078 92.5781C395.989 92.4849 395.932 92.3711 395.913 92.25L394.855 86.5473L389.018 84.1093C388.891 84.0585 388.784 83.9763 388.709 83.8726C388.634 83.7689 388.594 83.6482 388.594 83.5248C388.594 83.4014 388.634 83.2806 388.709 83.177C388.784 83.0733 388.891 82.9911 389.018 82.9403L394.742 80.3027L395.56 74.6C395.582 74.48 395.641 74.3679 395.731 74.2766C395.821 74.1853 395.938 74.1186 396.069 74.0843C396.2 74.05 396.339 74.0494 396.471 74.0826C396.602 74.1158 396.72 74.1815 396.811 74.2721Z" fill="#FAFAFA"/>
<path d="M412.494 350L413.199 354.406L417.673 356.359C417.772 356.398 417.857 356.462 417.916 356.543C417.975 356.624 418.007 356.719 418.007 356.815C418.007 356.912 417.975 357.006 417.916 357.087C417.857 357.168 417.772 357.232 417.673 357.271L413.199 359.239L412.478 363.63C412.462 363.723 412.418 363.809 412.35 363.881C412.282 363.952 412.192 364.005 412.092 364.033C411.992 364.061 411.884 364.064 411.782 364.04C411.68 364.017 411.588 363.969 411.516 363.901L408.02 360.722L403.113 361.477C403.007 361.493 402.899 361.483 402.799 361.447C402.7 361.411 402.614 361.351 402.551 361.274C402.487 361.197 402.449 361.106 402.441 361.011C402.433 360.916 402.455 360.821 402.504 360.736L404.829 356.815L402.504 352.88C402.459 352.796 402.441 352.703 402.451 352.61C402.461 352.517 402.5 352.429 402.562 352.354C402.625 352.279 402.709 352.221 402.806 352.186C402.903 352.15 403.009 352.139 403.113 352.153L408.036 352.909L411.516 349.729C411.59 349.663 411.684 349.616 411.786 349.593C411.889 349.57 411.996 349.573 412.097 349.601C412.198 349.629 412.288 349.681 412.358 349.751C412.428 349.822 412.475 349.908 412.494 350Z" fill="#FAFAFA"/>
<path d="M584.186 205.151L525.561 175.054L571.149 151.645L577.675 154.995L571.149 165.018L584.186 205.151Z" fill="#BA68C8"/>
<path d="M577.677 154.995V158.331L571.888 167.256L571.15 165.017L577.677 154.995Z" fill="#BA68C8"/>
<path opacity="0.1" d="M577.677 154.995V158.331L571.888 167.256L571.15 165.017L577.677 154.995Z" fill="black"/>
<path d="M497.242 160.47C494.596 158.773 490.828 158.844 486.482 161.068C478.577 165.203 472.227 175.154 472.307 183.309C472.307 187.016 473.702 189.725 475.915 191.151L472.371 189.725C469.437 188.47 467.561 185.448 467.561 181.085C467.561 172.716 473.975 162.551 482.121 158.274C486.643 155.922 490.683 155.907 493.345 157.804L497.242 160.47Z" fill="#BA68C8"/>
<path d="M511.32 170.207L494.579 198.45L478.704 192.234L475.962 191.151C473.749 189.725 472.386 187.016 472.354 183.309C472.274 175.154 478.624 165.203 486.529 161.068C490.795 158.844 494.643 158.773 497.289 160.47L497.834 160.855L511.32 170.207Z" fill="#455A64"/>
<path d="M499.086 190.851L497.884 184.777L474.665 173.899C473.19 176.866 472.405 180.066 472.355 183.309C472.355 187.016 473.751 189.725 475.963 191.15L478.705 192.234L494.58 198.45L499.086 190.851Z" fill="#37474F"/>
<path d="M681.15 268.038C677.087 259.373 671.973 251.126 665.901 243.445C655.542 230.443 642.361 217.412 635.626 213.506C622.654 205.907 518.568 163.934 518.568 163.934C515.089 162.509 510.551 162.936 505.5 165.56C494.756 171.163 486.129 184.692 486.257 195.784C486.257 200.846 488.182 204.495 491.212 206.463C491.212 206.463 571.741 258.9 599.611 270.619C612.551 276.051 630.078 277.747 645.135 278.09H646.739C656.689 278.231 666.639 277.822 676.532 276.863C678.034 276.706 679.419 276.062 680.422 275.055C681.424 274.048 681.975 272.748 681.968 271.403C681.903 270.249 681.627 269.113 681.15 268.038Z" fill="#FAFAFA"/>
<path d="M505.549 165.545C501.312 167.868 497.651 170.934 494.789 174.555L575.815 202.755L579.52 200.845L508.563 164.233C507.525 164.606 506.517 165.044 505.549 165.545Z" fill="#F0F0F0"/>
<path d="M676.564 276.82C677.863 276.684 679.079 276.183 680.036 275.391C680.993 274.599 681.642 273.556 681.888 272.415C674.784 275.836 637.262 269.079 623.263 263.376C612.231 258.885 551.617 225.21 551.617 225.21L492.992 191.778L487.252 188.784C486.602 191.067 486.274 193.414 486.273 195.77C486.273 200.831 488.198 204.481 491.228 206.448C491.228 206.448 571.758 258.885 599.627 270.604C612.568 276.036 630.094 277.733 645.151 278.075H646.755C656.705 278.216 666.655 277.807 676.548 276.849L676.564 276.82Z" fill="#F0F0F0"/>
<path d="M525.431 166.657C522.063 165.915 517.958 166.657 513.533 168.923C502.308 174.797 493.248 188.954 493.344 200.56C493.204 203.804 494.214 207.006 496.231 209.713L491.212 206.462C488.181 204.494 486.305 200.845 486.257 195.784C486.16 184.692 494.787 171.162 505.499 165.559C510.518 162.936 515.12 162.536 518.568 163.934L525.431 166.657Z" fill="#BA68C8"/>
<path opacity="0.1" d="M508.563 164.233C507.525 164.606 506.517 165.044 505.549 165.545C501.312 167.868 497.651 170.934 494.789 174.555L503.063 177.406C505.92 173.997 509.472 171.095 513.534 168.852C514.272 168.481 514.994 168.154 515.699 167.854L508.563 164.233Z" fill="black"/>
<path opacity="0.1" d="M494.674 208.786L496.278 209.784C494.28 207.07 493.277 203.873 493.408 200.631C493.416 197.963 493.82 195.307 494.61 192.733L493.007 191.849L487.266 188.855C487.138 189.354 487.009 189.853 486.897 190.366L486.801 190.851C486.721 191.279 486.641 191.706 486.577 192.12C486.512 192.533 486.577 192.719 486.464 193.032C486.352 193.346 486.464 193.645 486.352 193.959C486.352 194.601 486.272 195.228 486.352 195.841C486.352 200.902 488.276 204.552 491.307 206.519L494.674 208.786Z" fill="black"/>
<path d="M492.993 191.763L551.618 221.86L473.446 215.173L453.915 218.523L447.404 215.173L492.993 191.763Z" fill="#BA68C8"/>
<path d="M447.404 215.173V218.524L453.915 221.86L473.446 218.524L551.618 225.21V221.86L473.446 215.173L453.915 218.524L447.404 215.173Z" fill="#BA68C8"/>
<path d="M510.68 169.324L575.815 202.756L523.7 135.891L517.19 119.168L510.68 115.817V169.324Z" fill="#BA68C8"/>
<path opacity="0.15" d="M510.68 169.324L575.815 202.756L523.7 135.891L517.19 119.168L510.68 115.817V169.324Z" fill="black"/>
<path d="M514.384 113.921L510.68 115.817L517.19 119.167L523.7 135.891L575.815 202.756L579.519 200.845L527.421 133.98L520.894 117.257L514.384 113.921Z" fill="#BA68C8"/>
<path d="M682.001 271.36C681.921 270.22 681.634 269.098 681.152 268.038C678.795 262.934 676.035 257.984 672.893 253.225C662.342 250.374 652.048 270.605 657.9 278.004C668.885 277.705 676.549 276.849 676.549 276.849C678.06 276.694 679.453 276.048 680.46 275.034C681.466 274.021 682.015 272.712 682.001 271.36Z" fill="#BA68C8"/>
<path opacity="0.1" d="M520.896 117.257L517.191 119.167L523.702 135.891L527.422 133.98L520.896 117.257Z" fill="black"/>
<path opacity="0.05" d="M527.421 133.98L579.52 200.845L575.816 202.755L523.701 135.89L527.421 133.98Z" fill="black"/>
<path opacity="0.15" d="M447.404 215.173L453.915 218.524V221.86L447.404 218.524V215.173Z" fill="black"/>
<path opacity="0.05" d="M473.447 218.524V215.173L551.619 221.86V225.21L473.447 218.524Z" fill="black"/>
<path opacity="0.1" d="M473.445 215.173L453.914 218.524V221.86L473.445 218.524V215.173Z" fill="black"/>
<path opacity="0.1" d="M677.945 276.52L678.586 276.278L678.955 276.093L679.468 275.793L679.821 275.551L680.254 275.18L680.559 274.895L680.911 274.467L681.152 274.139C681.259 273.98 681.35 273.813 681.424 273.64C681.49 273.529 681.549 273.415 681.601 273.298C681.728 273.017 681.825 272.726 681.889 272.429C678.442 274.082 667.842 273.355 656.233 271.502C655.966 273.771 656.528 276.055 657.836 278.017H659.536H660.081L661.685 277.946H661.958L666.928 277.689H667.025L668.516 277.59L673.327 277.233H673.631L675.62 277.048H675.844H676.149H676.293H676.566C676.921 277.017 677.27 276.95 677.608 276.848L677.945 276.52Z" fill="black"/>
<path opacity="0.1" d="M469.886 171.718C468.434 174.7 467.661 177.908 467.609 181.156C467.609 185.547 469.502 188.541 472.42 189.796L475.964 191.222C473.751 189.796 472.388 187.087 472.356 183.38C472.405 180.138 473.19 176.937 474.665 173.971L469.886 171.718Z" fill="black"/>
<path d="M647.783 225.211C647.783 225.211 640.823 223.186 629.775 228.147C622.681 231.336 616.757 236.257 612.697 242.333L629.021 249.02C629.021 249.02 641.272 238.085 656.65 234.834C654.073 231.365 651.101 228.14 647.783 225.211Z" fill="#455A64"/>
<path d="M579.519 243.003C579.495 240.942 579.699 238.884 580.129 236.858C580.85 233.494 580.273 229.944 577.675 228.603C575.078 227.263 571.614 228.689 570.812 231.997C570.356 233.997 570.103 236.029 570.059 238.07L579.519 243.003Z" fill="#E0E0E0"/>
<path d="M570.876 237.499L570.01 237.186C569.211 236.895 568.391 236.653 567.556 236.459C564.367 235.659 561.03 235.436 557.743 235.803C555.232 236.096 552.813 236.833 550.626 237.969C548.44 239.105 546.531 240.617 545.011 242.418L544.337 243.202L544.161 243.402V243.516L543.872 243.972C543.519 244.599 543.071 245.227 542.782 245.868C542.197 247.181 541.72 248.529 541.355 249.903C540.531 252.983 539.931 256.107 539.559 259.255C538.725 265.885 538.276 273.127 537.57 280.826C537.17 284.676 536.801 288.639 536.063 292.688C535.422 296.907 534.233 301.045 532.519 305.02C530.533 309.17 527.563 312.89 523.812 315.927C520.005 319.02 515.57 321.439 510.743 323.055C505.929 324.769 500.864 325.864 495.702 326.306C490.544 326.783 485.345 326.812 480.18 326.391C469.99 325.381 459.994 323.18 450.451 319.847C441.166 316.697 432.09 313.76 423.191 311.293C414.693 308.826 406.02 306.864 397.229 305.419C395.161 305.006 393.076 304.835 391.056 304.564C389.035 304.293 387.015 304.065 385.043 303.979C383.07 303.894 381.13 303.68 379.238 303.637H373.642C367.044 303.733 360.483 304.522 354.094 305.99L349.973 306.945L346.269 308.171L342.854 309.283C341.795 309.711 340.817 310.167 339.871 310.566C337.995 311.421 336.263 312.063 334.868 312.819L331.34 314.758L328.39 316.369L323.916 310.452L327.123 308.741L331.036 306.688C332.639 305.904 334.499 305.262 336.584 304.322C337.626 303.908 338.717 303.423 339.887 302.996L343.655 301.812L347.761 300.558L352.282 299.588C359.239 298.125 366.365 297.398 373.513 297.421L379.494 297.535C381.515 297.635 383.551 297.863 385.636 298.02C387.72 298.177 389.821 298.448 391.954 298.761C394.086 299.075 396.251 299.303 398.368 299.759C407.393 301.41 416.286 303.592 424.987 306.289C433.998 308.998 443.187 312.163 452.359 315.47C461.407 318.828 470.911 321.114 480.629 322.271C485.475 322.748 490.362 322.805 495.221 322.442C500.011 322.129 504.725 321.207 509.22 319.705C513.631 318.305 517.702 316.171 521.214 313.417C524.643 310.773 527.38 307.493 529.232 303.808C530.904 300.092 532.087 296.217 532.76 292.26C533.562 288.34 534.043 284.433 534.524 280.627C535.406 272.999 535.999 265.728 537.009 259.027C537.463 255.792 538.154 252.587 539.078 249.432C539.524 247.918 540.098 246.436 540.794 244.999C541.13 244.3 541.579 243.73 541.948 243.102L542.253 242.646V242.532L542.349 242.404L542.541 242.19L543.279 241.349C545.148 239.252 547.492 237.528 550.158 236.288C552.426 235.252 554.888 234.595 557.422 234.349C560.933 234.015 564.484 234.316 567.861 235.233C568.754 235.45 569.628 235.726 570.475 236.059L571.325 236.387L570.876 237.499Z" fill="#E0E0E0"/>
<path d="M211.814 424.863C201.151 426.845 190.263 428.556 189.156 434.173C188.05 439.79 197.366 450.397 218.565 445.906C239.764 441.415 241.415 434.401 240.02 429.183C238.625 423.965 220.233 423.295 211.814 424.863Z" fill="#263238"/>
<path d="M362.641 407.869C356.82 407.498 347.551 416.836 340.849 424.121C334.146 431.407 328.437 438.706 330.345 441.672C332.254 444.637 339.245 451.267 353.26 442.556C367.275 433.845 371.267 422.297 370.995 417.121C370.722 411.946 367.627 408.197 362.641 407.869Z" fill="#263238"/>
<path d="M231.841 398.017C230.774 400.181 230.212 402.514 230.187 404.876C230.162 407.238 230.676 409.58 231.696 411.761C240.323 430.466 236.78 461.446 236.507 478.355C219.157 490.288 205.399 480.379 205.399 480.379C205.399 480.379 185.419 407.954 184.777 399.115C183.831 385.742 188.866 367.75 198.247 349.601C205.425 335.353 213.416 321.439 222.187 307.914L320.74 313.616C324.831 322.949 327.563 332.709 328.87 342.658C330.843 358.54 332.077 378.628 336.888 391.602C337.735 393.842 339.084 395.907 340.853 397.671C342.623 399.436 344.776 400.863 347.183 401.867C367.708 410.563 388.506 435.613 401.142 448.244C397.261 467.491 379.526 468.432 379.526 468.432C379.526 468.432 309.965 426.759 302.813 420.586C291.989 411.233 281.727 398.103 274.928 379.027C268.129 359.951 263.992 350.613 263.992 350.613C263.992 350.613 238.078 385.571 231.841 398.017Z" fill="#F0F0F0"/>
<path d="M193.131 442.598C193.131 442.598 198.952 462.558 199.224 468.175C199.449 472.88 197.861 476.587 191.062 480.479C181.297 486.068 166.24 492.013 156.522 498.614C150.317 502.891 151.215 509.107 161.189 512.871C167.314 515.152 179.95 517.732 195.456 512.871C203.907 510.233 214.265 501.907 221.465 501.537C228.665 501.166 241.205 500.738 245.39 494.936C246.785 485.868 242.295 478.768 241.205 472.723C239.377 462.743 239.794 442.684 239.697 436.582C239.697 436.582 233.684 444.623 217.248 446.562C200.812 448.501 193.131 442.598 193.131 442.598Z" fill="#455A64"/>
<path d="M237.999 429.767C238.4 432.846 236.748 435.94 232.482 438.763C223.952 444.38 209.135 445.891 199.386 442.142C194.88 440.417 192.25 437.865 191.56 435.013C191.56 435.013 191.047 432.718 192.282 431.749L191.256 427.785C189.896 428.31 188.727 429.159 187.878 430.239C187.029 431.318 186.533 432.586 186.445 433.901C186.285 436.91 188.049 444.124 198.632 447.702C209.215 451.281 226.806 449.456 235.513 443.553C243.419 438.178 243.691 430.423 242.136 427.286C241.6 426.101 240.668 425.09 239.467 424.39C238.266 423.689 236.853 423.331 235.417 423.366L236.09 427.115C236.619 427.394 237.067 427.78 237.398 428.24C237.729 428.7 237.935 429.223 237.999 429.767Z" fill="#BA68C8"/>
<path d="M340.943 447.061C340.943 447.061 358.406 458.267 362.88 462.302C366.6 465.667 368.203 469.43 366.087 476.302C363.04 486.282 357.54 495.392 355.295 506.085C353.868 512.914 359.272 517.034 369.454 513.841C375.724 511.888 384.96 507.696 394.886 496.062C401.188 488.677 401.3 478.484 406.351 473.907C411.402 469.331 418.314 460.406 417.047 453.605C411.258 446.035 404.652 444.595 399.28 440.774C390.364 434.415 375.596 419.389 370.929 414.855C370.929 414.855 372.533 424.393 361.741 435.599C350.949 446.805 340.943 447.061 340.943 447.061Z" fill="#455A64"/>
<path d="M364.582 410.82C367.195 412.859 368.302 416.138 367.26 420.8C365.175 430.067 355.313 440.018 345.259 443.04C340.593 444.466 336.712 444.11 334.034 442.427C334.034 442.427 331.902 441.073 332.094 439.576L328.278 437.209C327.679 438.418 327.464 439.749 327.656 441.059C327.848 442.368 328.441 443.606 329.368 444.637C331.533 446.947 338.268 451.267 348.835 447.617C359.402 443.967 371.06 432.134 373.064 422.568C374.876 413.871 369.232 407.954 365.704 406.543C364.398 405.967 362.927 405.755 361.482 405.933C360.038 406.111 358.688 406.671 357.606 407.541L361.246 410.05C361.83 409.921 362.441 409.924 363.024 410.058C363.607 410.192 364.142 410.454 364.582 410.82Z" fill="#BA68C8"/>
<path d="M239.634 334.517C239.634 334.517 245.342 346.079 251.821 351.041C251.821 351.041 240.323 375.049 234.679 386.683C229.035 398.317 230.221 405.73 230.221 405.73C230.08 403.07 230.629 400.416 231.825 397.975C238.062 385.471 263.895 350.57 263.895 350.57C263.895 350.57 252.542 346.593 239.634 334.517Z" fill="#E0E0E0"/>
<path d="M142.348 223.84C141.289 221.987 139.958 212.677 140.375 207.53C140.744 203.139 136.254 201.272 133.336 204.836C130.417 208.4 131.107 211.423 129.584 210.738C128.06 210.054 125.334 203.496 123.522 197.494C121.919 192.09 115.906 183.137 105.627 192.404C95.3483 201.671 100.816 215.643 104.312 222.914C107.808 230.185 118.183 239.537 124.693 242.146L142.348 223.84Z" fill="#455A64"/>
<path d="M145.94 229.229C147.704 226.478 143.76 223.527 139.526 223.256C137.051 223.212 134.593 223.62 132.303 224.457C130.014 225.293 127.942 226.539 126.217 228.117C121.406 232.266 119.562 238.553 121.406 243.301C123.459 248.69 128.334 247.82 128.334 247.82L145.94 229.229Z" fill="#BA68C8"/>
<path d="M239.072 242.104C233.652 249.518 211.619 266.783 202.672 272.657C193.724 278.53 183.108 282.936 176.823 282.779C171.563 282.651 151.166 273.683 128.284 247.821C126.344 245.625 124.596 241.805 125.077 239.139C126.456 232.381 131.122 228.66 137.312 227.476C138.796 227.253 140.315 227.293 141.782 227.594C143.249 227.895 144.634 228.451 145.858 229.23C152.802 234.676 169.478 248.691 176.197 250.216C184.215 248.434 192.842 238.554 200.443 230.442C208.043 222.33 218.851 207.132 228.488 209.228C248.853 213.647 244.764 238.426 239.072 242.104Z" fill="#F0F0F0"/>
<path d="M222.652 297.72C219.445 299.858 219.445 305.903 224.015 310.195C228.585 314.486 241.991 323.24 263.75 325.877C288.172 328.814 307.447 322.498 316.667 316.895C326.208 311.093 320.964 305.304 320.964 305.304L222.652 297.72Z" fill="#BA68C8"/>
<path d="M288.235 213.749C317.297 203.046 331.098 173.423 319.06 147.584C307.022 121.745 273.704 109.474 244.641 120.177C215.579 130.88 201.778 160.503 213.816 186.342C225.854 212.181 259.172 224.452 288.235 213.749Z" fill="#455A64"/>
<path d="M254.803 226.407C255.925 239.88 246.432 251.485 233.62 252.326C220.808 253.167 212.999 242.346 211.876 228.873C210.754 215.4 219.14 202.084 229.852 205.221C242.696 204.964 253.664 212.934 254.803 226.407Z" fill="#BA68C8"/>
<path opacity="0.1" d="M254.803 226.407C255.925 239.88 246.432 251.485 233.62 252.326C220.808 253.167 212.999 242.346 211.876 228.873C210.754 215.4 219.14 202.084 229.852 205.221C242.696 204.964 253.664 212.934 254.803 226.407Z" fill="black"/>
<path d="M228.169 205.164C224.192 208.771 218.997 218.537 220.44 233.25C221.45 243.672 225.667 253.209 224.593 265.342C223.839 273.739 218.323 286.727 222.653 297.72C224.93 303.494 240.179 314.956 263.334 318.962C286.489 322.969 316.732 313.53 322.168 303.508C327.812 293.115 329.48 266.183 328.325 253.238C327.171 240.293 323.419 213.932 311.232 202.697C277.365 185.104 251.035 189.709 228.169 205.164Z" fill="#FAFAFA"/>
<path d="M253.808 179.872C266.827 179.872 277.38 170.489 277.38 158.914C277.38 147.34 266.827 137.957 253.808 137.957C240.79 137.957 230.236 147.34 230.236 158.914C230.236 170.489 240.79 179.872 253.808 179.872Z" fill="#263238"/>
<path d="M294.538 173.813C294.538 173.813 290.722 189.766 289.198 192.347C288.176 193.963 286.494 195.167 284.5 195.712L284.773 184.491L294.538 173.813Z" fill="#263238"/>
<path d="M289.761 150.959C291.096 150.821 292.449 150.956 293.716 151.354C294.983 151.752 296.131 152.402 297.073 153.255C300.28 156.106 298.468 165.059 294.539 173.813L287.355 174.554L289.761 150.959Z" fill="#263238"/>
<path d="M285.188 174.568C286.631 175.338 288.7 172.872 290.48 171.218C292.26 169.564 298.065 167.297 300.951 172.729C303.837 178.161 298.401 185.561 293.831 186.844C285.942 189.039 284.771 184.548 284.771 184.548L284.082 205.178C284.082 205.178 285.894 210.097 271.927 211.779C257.96 213.461 253.855 209.526 258.441 204.508L258.554 201.457C255.044 201.952 251.486 202.114 247.938 201.942C242.133 201.143 238.493 197.08 236.714 191.506C233.891 182.552 232.817 175.31 235.222 157.703C237.836 138.399 263.108 138.185 276.738 145.826C290.368 153.468 285.188 174.568 285.188 174.568Z" fill="#FFA8A7"/>
<path d="M285.191 176.707C285.929 176.707 288.687 172.658 290.483 171.204C292.952 169.208 289.809 151.244 289.761 150.959C289.585 150.018 290.002 149.006 289.761 147.936C289.418 146.609 288.838 145.338 288.045 144.173C286.522 141.863 283.876 140.68 281.311 139.311C276.878 136.944 271.775 135.757 266.606 135.889C261.411 135.889 257.594 136.759 251.036 137.957C245.568 138.969 238.689 139.796 233.397 138.27C229.853 137.258 230.19 141.749 231.473 145.513C232.432 148.141 234.133 150.506 236.412 152.385C239.619 155.236 245.536 156.804 249.833 156.99C261.234 157.517 273.678 155.279 275.65 155.036C278.328 154.709 279.066 155.464 280.461 161.766C281.711 167.297 282.754 176.664 285.191 176.707Z" fill="#263238"/>
<path d="M289.744 152.385L298.467 148.222C298.189 147.699 297.795 147.231 297.308 146.847C296.821 146.463 296.252 146.171 295.634 145.988C295.016 145.805 294.363 145.736 293.715 145.784C293.066 145.833 292.435 145.997 291.86 146.269C290.691 146.851 289.818 147.811 289.424 148.95C289.03 150.089 289.144 151.319 289.744 152.385Z" fill="#263238"/>
<path d="M258.558 201.443C258.558 201.443 271.482 199.119 276.004 196.981C278.665 195.755 280.845 193.842 282.258 191.492C281.573 193.842 280.368 196.047 278.714 197.979C275.411 201.728 258.445 204.494 258.445 204.494L258.558 201.443Z" fill="#F28F8F"/>
<path d="M260.848 173.784C260.867 174.238 261.036 174.676 261.333 175.045C261.631 175.413 262.044 175.696 262.521 175.857C262.998 176.019 263.517 176.052 264.015 175.952C264.513 175.852 264.967 175.624 265.32 175.297C265.673 174.969 265.91 174.556 266.001 174.11C266.091 173.664 266.032 173.203 265.831 172.786C265.629 172.37 265.294 172.015 264.867 171.766C264.44 171.518 263.94 171.387 263.43 171.389C263.083 171.395 262.741 171.461 262.424 171.585C262.106 171.708 261.819 171.887 261.579 172.109C261.339 172.332 261.151 172.594 261.025 172.882C260.9 173.169 260.84 173.476 260.848 173.784Z" fill="#263238"/>
<path d="M263.59 165.088L269.138 167.811C269.537 167.135 269.624 166.348 269.382 165.617C269.139 164.885 268.586 164.266 267.839 163.89C267.474 163.712 267.072 163.601 266.657 163.565C266.242 163.529 265.823 163.568 265.426 163.68C265.029 163.792 264.661 163.974 264.345 164.216C264.03 164.458 263.773 164.755 263.59 165.088Z" fill="#263238"/>
<path d="M259.728 187.6L253.811 189.567C253.939 189.921 254.146 190.249 254.419 190.53C254.693 190.812 255.028 191.041 255.403 191.205C255.779 191.369 256.188 191.463 256.606 191.483C257.024 191.503 257.442 191.448 257.835 191.321C258.627 191.034 259.265 190.488 259.617 189.796C259.969 189.103 260.008 188.317 259.728 187.6Z" fill="#F28F8F"/>
<path d="M237.725 167.012L242.793 163.548C242.554 163.244 242.248 162.986 241.894 162.79C241.54 162.594 241.145 162.464 240.732 162.408C240.32 162.352 239.899 162.371 239.495 162.464C239.091 162.557 238.713 162.722 238.383 162.949C237.712 163.424 237.27 164.11 237.148 164.865C237.025 165.62 237.232 166.388 237.725 167.012Z" fill="#263238"/>
<path d="M239.282 173.143C239.301 173.596 239.469 174.034 239.765 174.402C240.062 174.771 240.474 175.053 240.95 175.215C241.426 175.377 241.945 175.411 242.443 175.312C242.94 175.213 243.394 174.987 243.748 174.661C244.101 174.335 244.339 173.923 244.432 173.478C244.525 173.032 244.468 172.572 244.269 172.155C244.07 171.738 243.737 171.382 243.312 171.132C242.887 170.882 242.389 170.748 241.879 170.748C241.532 170.754 241.189 170.82 240.87 170.943C240.552 171.067 240.264 171.245 240.022 171.467C239.781 171.69 239.592 171.952 239.465 172.24C239.337 172.527 239.275 172.834 239.282 173.143Z" fill="#263238"/>
<path d="M253.312 168.837L252.462 182.695L244.316 180.229L253.312 168.837Z" fill="#F28F8F"/>
<path d="M266.429 218.366C254.992 218.366 243.812 215.351 234.302 209.701C224.793 204.051 217.382 196.021 213.005 186.627C208.629 177.232 207.485 166.894 209.718 156.921C211.95 146.948 217.459 137.787 225.547 130.598C233.636 123.409 243.94 118.514 255.158 116.532C266.376 114.549 278.002 115.57 288.568 119.463C299.133 123.356 308.163 129.948 314.515 138.404C320.867 146.86 324.255 156.801 324.252 166.97C324.231 180.598 318.131 193.662 307.292 203.297C296.452 212.932 281.757 218.351 266.429 218.366ZM266.429 117.142C255.329 117.142 244.478 120.069 235.248 125.552C226.019 131.035 218.825 138.828 214.577 147.946C210.33 157.064 209.218 167.097 211.384 176.776C213.549 186.456 218.894 195.347 226.743 202.325C234.592 209.304 244.593 214.056 255.48 215.982C266.367 217.907 277.651 216.919 287.906 213.142C298.162 209.366 306.927 202.97 313.094 194.764C319.261 186.558 322.552 176.911 322.552 167.041C322.561 160.484 321.115 153.989 318.299 147.928C315.482 141.868 311.349 136.36 306.137 131.72C300.924 127.081 294.735 123.4 287.921 120.889C281.108 118.378 273.804 117.085 266.429 117.085V117.142Z" fill="#BA68C8"/>
<path d="M298.083 218.066C280.605 227.048 252.27 227.048 234.776 218.066C223.695 212.363 219.093 206.062 222.076 198.734C231.697 211.109 248.261 217.61 266.429 217.61C284.597 217.61 301.018 211.294 310.607 198.919C313.589 206.247 309.163 212.378 298.083 218.066Z" fill="#BA68C8"/>
<path d="M239.955 263.318L239.346 269.02C230.703 268.293 218.227 273.383 214.203 281.852C210.707 289.194 210.995 308.042 218.644 313.744C217.778 315.327 216.848 317.109 215.854 319.034C204.485 311.763 203.699 289.308 208.286 279.642C213.417 268.664 228.827 262.377 239.955 263.318Z" fill="#E0E0E0"/>
<path d="M241.333 261.949L239.217 261.749C238.772 261.714 238.329 261.828 237.973 262.068C237.617 262.308 237.375 262.657 237.293 263.047C236.897 265.142 236.897 267.281 237.293 269.377C237.352 269.729 237.541 270.054 237.832 270.3C238.123 270.545 238.497 270.697 238.896 270.731L242.328 271.016L241.333 261.949Z" fill="#BA68C8"/>
<path d="M248.981 246.994L279.016 253.609C281.195 254.164 283.121 255.318 284.518 256.906C285.915 258.494 286.711 260.434 286.793 262.448V278.288C286.857 279.151 286.682 280.016 286.285 280.806C285.888 281.596 285.28 282.289 284.513 282.822C283.747 283.356 282.846 283.716 281.887 283.87C280.929 284.023 279.944 283.967 279.016 283.705L248.981 277.09C246.802 276.535 244.876 275.381 243.479 273.793C242.082 272.205 241.286 270.265 241.204 268.251V252.411C241.14 251.548 241.315 250.683 241.712 249.893C242.109 249.102 242.717 248.41 243.484 247.876C244.25 247.343 245.151 246.983 246.109 246.829C247.068 246.675 248.053 246.732 248.981 246.994Z" fill="#37474F"/>
<path d="M250.892 253.937C252.202 254.266 253.36 254.957 254.199 255.911C255.038 256.864 255.514 258.03 255.558 259.24C255.597 259.758 255.492 260.277 255.254 260.75C255.015 261.224 254.65 261.639 254.189 261.958C253.729 262.277 253.188 262.491 252.613 262.582C252.038 262.672 251.447 262.636 250.892 262.477C249.587 262.146 248.434 261.455 247.598 260.505C246.763 259.554 246.288 258.393 246.241 257.187C246.205 256.671 246.31 256.154 246.548 255.682C246.785 255.21 247.149 254.796 247.606 254.476C248.064 254.156 248.602 253.94 249.174 253.846C249.747 253.752 250.336 253.783 250.892 253.937Z" fill="#BA68C8"/>
<path d="M250.891 265.471C252.201 265.8 253.36 266.491 254.199 267.445C255.038 268.398 255.514 269.564 255.558 270.774C255.596 271.292 255.492 271.81 255.253 272.284C255.015 272.758 254.649 273.172 254.189 273.492C253.729 273.811 253.187 274.025 252.613 274.116C252.038 274.206 251.447 274.17 250.891 274.011C249.587 273.679 248.434 272.989 247.598 272.039C246.762 271.088 246.287 269.927 246.241 268.721C246.201 268.204 246.303 267.685 246.54 267.211C246.776 266.737 247.14 266.322 247.598 266.001C248.057 265.681 248.597 265.465 249.171 265.372C249.745 265.28 250.335 265.314 250.891 265.471Z" fill="#BA68C8"/>
<path d="M317.951 306.203C315.915 307.343 305.219 309.439 299.206 309.525C294.074 309.596 292.327 313.887 296.736 316.239C301.146 318.592 304.578 317.665 303.936 319.091C303.295 320.517 295.919 323.653 289.136 325.877C282.994 327.887 273.1 334.189 284.87 342.772C296.64 351.354 312.291 344.996 320.42 341.132C328.55 337.268 338.412 326.875 340.849 320.659L317.951 306.203Z" fill="#455A64"/>
<path d="M323.867 302.411C320.531 300.985 317.453 304.934 317.533 308.84C317.716 311.114 318.421 313.331 319.604 315.354C320.787 317.377 322.423 319.163 324.412 320.602C329.672 324.58 337.144 325.735 342.484 323.639C348.561 321.244 347.086 316.853 347.086 316.853L323.867 302.411Z" fill="#BA68C8"/>
<path d="M330.17 215.757C339.278 220.034 361.359 238.654 369.008 246.31C376.657 253.965 382.75 263.304 383.151 269.121C383.488 273.968 374.989 293.5 347.088 316.881C344.714 318.877 340.449 320.83 337.306 320.574C329.288 319.932 324.574 316.012 322.634 310.437C321.838 307.731 322.282 304.855 323.868 302.439C329.545 295.567 344.281 278.958 345.42 272.656C342.598 265.385 328.695 258.499 321.094 254.464C321.094 254.464 301.772 249.66 303.456 230.484C305.139 211.309 325.376 210.895 330.17 215.757Z" fill="#F0F0F0"/>
<path d="M330.168 215.757C329.116 214.864 327.841 214.206 326.447 213.836C325.053 213.467 323.581 213.397 322.151 213.632C312.065 215.6 305.811 225.266 308.264 238.596C309.868 247.322 313.7 251.171 321.092 254.436C311.183 255.662 301.193 249.246 299.06 237.641C296.59 224.311 305.041 210.353 317.725 208.514C320.417 208.277 323.12 208.866 325.384 210.184C327.647 211.501 329.336 213.468 330.168 215.757Z" fill="#BA68C8"/>
<path d="M118.952 136.203L126.681 142.99L137.361 141.165C137.589 141.126 137.824 141.144 138.041 141.219C138.257 141.293 138.445 141.42 138.584 141.585C138.723 141.75 138.807 141.947 138.826 142.152C138.845 142.358 138.799 142.564 138.692 142.747L133.881 151.301L139.125 159.77C139.235 159.949 139.286 160.152 139.273 160.356C139.261 160.56 139.184 160.757 139.053 160.924C138.921 161.092 138.739 161.223 138.528 161.304C138.317 161.385 138.085 161.411 137.858 161.381L127.114 159.955L119.674 166.998C119.516 167.147 119.315 167.254 119.093 167.307C118.871 167.359 118.637 167.356 118.417 167.296C118.197 167.237 118 167.124 117.848 166.971C117.696 166.818 117.595 166.63 117.557 166.428L115.777 156.904L105.98 152.855C105.774 152.762 105.602 152.62 105.481 152.446C105.361 152.271 105.297 152.07 105.297 151.865C105.297 151.659 105.361 151.458 105.481 151.284C105.602 151.109 105.774 150.967 105.98 150.874L115.601 146.44L116.948 136.845C116.988 136.657 117.082 136.481 117.221 136.335C117.361 136.189 117.541 136.078 117.743 136.014C117.946 135.949 118.164 135.932 118.376 135.965C118.588 135.999 118.787 136.081 118.952 136.203Z" fill="#FAFAFA"/>
<path d="M147.768 152.998C149.256 152.998 150.462 151.926 150.462 150.603C150.462 149.28 149.256 148.208 147.768 148.208C146.28 148.208 145.074 149.28 145.074 150.603C145.074 151.926 146.28 152.998 147.768 152.998Z" fill="#FAFAFA"/>
</svg>
